<svg width="19" height="35" viewBox="0 0 19 35" fill="none" xmlns="http://www.w3.org/2000/svg">
<path d="M10.2279 15.3611C5.99116 14.2139 4.62868 13.0278 4.62868 11.1806C4.62868 9.06111 6.51375 7.58333 9.66798 7.58333C12.9902 7.58333 14.222 9.23611 14.334 11.6667H18.4587C18.3281 8.32222 16.3684 5.25 12.4676 4.25833V0H6.86837V4.2C3.24754 5.01667 0.335953 7.46667 0.335953 11.2194C0.335953 15.7111 3.90079 17.9472 9.10805 19.25C13.7741 20.4167 14.7073 22.1278 14.7073 23.9361C14.7073 25.2778 13.7927 27.4167 9.66798 27.4167C5.82318 27.4167 4.3114 25.6278 4.10609 23.3333H0C0.223969 27.5917 3.28487 29.9833 6.86837 30.7806V35H12.4676V30.8194C16.1071 30.1 19 27.9028 19 23.9167C19 18.3944 14.4646 16.5083 10.2279 15.3611Z" fill="#0F4965"/>
</svg>
