<svg width="25" height="33" viewBox="0 0 25 33" fill="none" xmlns="http://www.w3.org/2000/svg">
<path d="M5.20833 12.375C4.93207 12.375 4.66711 12.4836 4.47176 12.677C4.27641 12.8704 4.16667 13.1327 4.16667 13.4062C4.16667 13.6798 4.27641 13.9421 4.47176 14.1355C4.66711 14.3289 4.93207 14.4375 5.20833 14.4375H19.7917C20.0679 14.4375 20.3329 14.3289 20.5282 14.1355C20.7236 13.9421 20.8333 13.6798 20.8333 13.4062C20.8333 13.1327 20.7236 12.8704 20.5282 12.677C20.3329 12.4836 20.0679 12.375 19.7917 12.375H5.20833ZM4.16667 19.5938C4.16667 19.3202 4.27641 19.0579 4.47176 18.8645C4.66711 18.6711 4.93207 18.5625 5.20833 18.5625H11.4583C11.7346 18.5625 11.9996 18.6711 12.1949 18.8645C12.3903 19.0579 12.5 19.3202 12.5 19.5938C12.5 19.8673 12.3903 20.1296 12.1949 20.323C11.9996 20.5164 11.7346 20.625 11.4583 20.625H5.20833C4.93207 20.625 4.66711 20.5164 4.47176 20.323C4.27641 20.1296 4.16667 19.8673 4.16667 19.5938ZM5.20833 24.75C4.93207 24.75 4.66711 24.8586 4.47176 25.052C4.27641 25.2454 4.16667 25.5077 4.16667 25.7812C4.16667 26.0548 4.27641 26.3171 4.47176 26.5105C4.66711 26.7039 4.93207 26.8125 5.20833 26.8125H15.625C15.9013 26.8125 16.1662 26.7039 16.3616 26.5105C16.5569 26.3171 16.6667 26.0548 16.6667 25.7812C16.6667 25.5077 16.5569 25.2454 16.3616 25.052C16.1662 24.8586 15.9013 24.75 15.625 24.75H5.20833ZM9.375 4.25363e-07C8.72849 -0.000335115 8.09778 0.197851 7.56981 0.567246C7.04184 0.93664 6.64259 1.45906 6.42708 2.0625H3.125C2.2962 2.0625 1.50134 2.38845 0.915291 2.96864C0.32924 3.54883 0 4.33574 0 5.15625V29.9062C0 30.7268 0.32924 31.5137 0.915291 32.0939C1.50134 32.6741 2.2962 33 3.125 33H21.875C22.7038 33 23.4987 32.6741 24.0847 32.0939C24.6708 31.5137 25 30.7268 25 29.9062V5.15625C25 4.33574 24.6708 3.54883 24.0847 2.96864C23.4987 2.38845 22.7038 2.0625 21.875 2.0625H18.5729C18.3574 1.45906 17.9582 0.93664 17.4302 0.567246C16.9022 0.197851 16.2715 -0.000335115 15.625 4.25363e-07H9.375ZM15.625 2.0625C15.9013 2.0625 16.1662 2.17115 16.3616 2.36455C16.5569 2.55794 16.6667 2.82025 16.6667 3.09375C16.6667 3.36726 16.5569 3.62956 16.3616 3.82295C16.1662 4.01635 15.9013 4.125 15.625 4.125H9.375C9.09873 4.125 8.83378 4.01635 8.63843 3.82295C8.44308 3.62956 8.33333 3.36726 8.33333 3.09375C8.33333 2.82025 8.44308 2.55794 8.63843 2.36455C8.83378 2.17115 9.09873 2.0625 9.375 2.0625H15.625ZM3.125 4.125H6.42708C6.64259 4.72844 7.04184 5.25086 7.56981 5.62025C8.09778 5.98965 8.72849 6.18784 9.375 6.1875H15.625C16.2715 6.18784 16.9022 5.98965 17.4302 5.62025C17.9582 5.25086 18.3574 4.72844 18.5729 4.125H21.875C22.1513 4.125 22.4162 4.23365 22.6116 4.42705C22.8069 4.62044 22.9167 4.88275 22.9167 5.15625V29.9062C22.9167 30.1798 22.8069 30.4421 22.6116 30.6355C22.4162 30.8289 22.1513 30.9375 21.875 30.9375H3.125C2.84873 30.9375 2.58378 30.8289 2.38843 30.6355C2.19308 30.4421 2.08333 30.1798 2.08333 29.9062V5.15625C2.08333 4.88275 2.19308 4.62044 2.38843 4.42705C2.58378 4.23365 2.84873 4.125 3.125 4.125V4.125Z" fill="#0F4965"/>
</svg>
