<svg width="40" height="40" viewBox="0 0 40 40" fill="none" xmlns="http://www.w3.org/2000/svg">
<path d="M20 4.61539C18.4786 4.61539 16.9913 5.06653 15.7263 5.91177C14.4614 6.75702 13.4754 7.95839 12.8932 9.36398C12.311 10.7696 12.1587 12.3162 12.4555 13.8084C12.7523 15.3006 13.4849 16.6712 14.5607 17.747C15.6365 18.8228 17.0071 19.5554 18.4993 19.8522C19.9914 20.149 21.5381 19.9967 22.9437 19.4145C24.3493 18.8322 25.5506 17.8463 26.3959 16.5813C27.2411 15.3163 27.6923 13.8291 27.6923 12.3077C27.6923 10.2676 26.8818 8.311 25.4392 6.86841C23.9967 5.42582 22.0401 4.61539 20 4.61539ZM20 16.9231C19.0871 16.9231 18.1948 16.6524 17.4358 16.1452C16.6768 15.6381 16.0852 14.9173 15.7359 14.0739C15.3866 13.2306 15.2952 12.3026 15.4733 11.4073C15.6513 10.512 16.0909 9.6896 16.7364 9.04413C17.3819 8.39865 18.2042 7.95908 19.0995 7.78099C19.9948 7.60291 20.9228 7.69431 21.7662 8.04364C22.6095 8.39296 23.3304 8.98453 23.8375 9.74352C24.3447 10.5025 24.6153 11.3949 24.6153 12.3077C24.6153 13.5318 24.1291 14.7057 23.2635 15.5713C22.398 16.4368 21.224 16.9231 20 16.9231ZM33.8461 33.8462V32.3077C33.8461 29.4515 32.7115 26.7123 30.6919 24.6927C28.6723 22.6731 25.9331 21.5385 23.0769 21.5385H16.923C14.0669 21.5385 11.3277 22.6731 9.30804 24.6927C7.28842 26.7123 6.15381 29.4515 6.15381 32.3077V33.8462L8.5 36L9.23073 32.3077C9.23073 30.2676 10.0412 28.311 11.4838 26.8684C12.9263 25.4258 14.8829 24.6154 16.923 24.6154H23.0769C25.117 24.6154 27.0736 25.4258 28.5162 26.8684C29.9588 28.311 30.7692 30.2676 30.7692 32.3077L31 36L33.8461 33.8462Z" fill="#0F4965"/>
<circle cx="20" cy="20" r="19" stroke="#0F4965" stroke-width="2"/>
</svg>
