<svg width="32" height="35" viewBox="0 0 32 35" fill="none" xmlns="http://www.w3.org/2000/svg">
<path d="M9.6 2.28715e-06C10.8011 2.28715e-06 11.9083 0.382943 12.8 1.02941C13.5924 0.455892 14.5346 0.106643 15.521 0.0208001C16.5075 -0.0650424 17.4992 0.115913 18.3851 0.543392C19.271 0.97087 20.0161 1.62798 20.5368 2.44109C21.0575 3.2542 21.3333 4.19119 21.3333 5.14706V8.2353H23.4667C24.0325 8.2353 24.5751 8.45221 24.9752 8.83831C25.3752 9.22442 25.6 9.74809 25.6 10.2941V18.2803L23.4667 20.3391V10.2941H17.0667V14.4118C16.32 14.4118 15.6011 14.5353 14.9333 14.7618V10.2941H2.13333V26.7647C2.13333 27.8568 2.58286 28.9041 3.38301 29.6763C4.18317 30.4485 5.26841 30.8824 6.4 30.8824H12.9813C12.7383 31.5486 12.7383 32.2749 12.9813 32.9412H6.4C4.70261 32.9412 3.07475 32.2904 1.87452 31.1321C0.674284 29.9738 0 28.4028 0 26.7647V10.2941C0 9.74809 0.224762 9.22442 0.624839 8.83831C1.02492 8.45221 1.56754 8.2353 2.13333 8.2353H4.26667V5.14706C4.26667 3.78198 4.82857 2.4728 5.82876 1.50754C6.82896 0.54228 8.18551 2.28715e-06 9.6 2.28715e-06ZM9.6 2.05883C8.75131 2.05883 7.93737 2.38419 7.33726 2.96335C6.73714 3.54251 6.4 4.32801 6.4 5.14706V8.2353H12.8V5.14706C12.8 4.32801 12.4629 3.54251 11.8627 2.96335C11.2626 2.38419 10.4487 2.05883 9.6 2.05883ZM16 2.05883C15.3429 2.05883 14.7307 2.2503 14.2229 2.57765C14.6752 3.3353 14.9333 4.21236 14.9333 5.14706V8.2353H19.2V5.14706C19.2 4.32801 18.8629 3.54251 18.2627 2.96335C17.6626 2.38419 16.8487 2.05883 16 2.05883ZM17.0667 24.7059C18.1983 24.7059 19.2835 24.2721 20.0837 23.4999C20.8838 22.7276 21.3333 21.6803 21.3333 20.5882C21.3333 19.4962 20.8838 18.4488 20.0837 17.6766C19.2835 16.9044 18.1983 16.4706 17.0667 16.4706C15.9351 16.4706 14.8498 16.9044 14.0497 17.6766C13.2495 18.4488 12.8 19.4962 12.8 20.5882C12.8 21.6803 13.2495 22.7276 14.0497 23.4999C14.8498 24.2721 15.9351 24.7059 17.0667 24.7059ZM17.0667 18.5294C17.6325 18.5294 18.1751 18.7463 18.5752 19.1324C18.9752 19.5185 19.2 20.0422 19.2 20.5882C19.2 21.1343 18.9752 21.6579 18.5752 22.044C18.1751 22.4301 17.6325 22.6471 17.0667 22.6471C16.5009 22.6471 15.9583 22.4301 15.5582 22.044C15.1581 21.6579 14.9333 21.1343 14.9333 20.5882C14.9333 20.0422 15.1581 19.5185 15.5582 19.1324C15.9583 18.7463 16.5009 18.5294 17.0667 18.5294ZM27.7333 35C28.8649 35 29.9502 34.5662 30.7503 33.794C31.5505 33.0218 32 31.9744 32 30.8824C32 29.7903 31.5505 28.7429 30.7503 27.9707C29.9502 27.1985 28.8649 26.7647 27.7333 26.7647C26.6017 26.7647 25.5165 27.1985 24.7163 27.9707C23.9162 28.7429 23.4667 29.7903 23.4667 30.8824C23.4667 31.9744 23.9162 33.0218 24.7163 33.794C25.5165 34.5662 26.6017 35 27.7333 35ZM27.7333 28.8235C28.2991 28.8235 28.8418 29.0404 29.2418 29.4265C29.6419 29.8126 29.8667 30.3363 29.8667 30.8824C29.8667 31.4284 29.6419 31.9521 29.2418 32.3382C28.8418 32.7243 28.2991 32.9412 27.7333 32.9412C27.1675 32.9412 26.6249 32.7243 26.2248 32.3382C25.8248 31.9521 25.6 31.4284 25.6 30.8824C25.6 30.3363 25.8248 29.8126 26.2248 29.4265C26.6249 29.0404 27.1675 28.8235 27.7333 28.8235ZM29.5552 20.2876C29.7555 20.0944 29.868 19.8322 29.868 19.5588C29.868 19.2855 29.7555 19.0233 29.5552 18.83C29.3549 18.6367 29.0833 18.5281 28.8 18.5281C28.5167 18.5281 28.2451 18.6367 28.0448 18.83L15.2448 31.1829C15.0445 31.3762 14.932 31.6384 14.932 31.9118C14.932 32.1851 15.0445 32.4473 15.2448 32.6406C15.4451 32.8339 15.7167 32.9425 16 32.9425C16.2833 32.9425 16.5549 32.8339 16.7552 32.6406L29.5552 20.2876Z" fill="#0F4965"/>
</svg>
