<svg width="29" height="29" viewBox="0 0 29 29" fill="none" xmlns="http://www.w3.org/2000/svg">
<path d="M14.5 0C12.9068 0 11.3493 0.447584 10.0246 1.28615C8.69984 2.12472 7.66734 3.31661 7.05764 4.7111C6.44793 6.10559 6.2884 7.64004 6.59923 9.12043C6.91005 10.6008 7.67727 11.9606 8.80386 13.0279C9.93045 14.0952 11.3658 14.8221 12.9284 15.1165C14.4911 15.411 16.1108 15.2599 17.5827 14.6822C19.0547 14.1046 20.3128 13.1265 21.198 11.8715C22.0831 10.6165 22.5556 9.14096 22.5556 7.63158C22.5556 5.60756 21.7068 3.66644 20.1961 2.23524C18.6854 0.804039 16.6365 0 14.5 0V0ZM14.5 12.2105C13.5441 12.2105 12.6096 11.942 11.8147 11.4388C11.0199 10.9357 10.4004 10.2206 10.0346 9.38387C9.66876 8.54717 9.57304 7.6265 9.75954 6.73827C9.94603 5.85004 10.4064 5.03415 11.0823 4.39377C11.7583 3.7534 12.6195 3.31729 13.5571 3.14062C14.4946 2.96394 15.4665 3.05461 16.3496 3.40118C17.2328 3.74775 17.9877 4.33465 18.5188 5.08765C19.0499 5.84066 19.3333 6.72595 19.3333 7.63158C19.3333 8.84599 18.8241 10.0107 17.9177 10.8694C17.0113 11.7281 15.7819 12.2105 14.5 12.2105V12.2105ZM29 29V27.4737C29 24.6401 27.8118 21.9225 25.6968 19.9188C23.5818 17.9151 20.7133 16.7895 17.7222 16.7895H11.2778C8.28673 16.7895 5.41818 17.9151 3.30318 19.9188C1.18819 21.9225 0 24.6401 0 27.4737V29H3.22222V27.4737C3.22222 25.4497 4.07093 23.5085 5.58164 22.0773C7.09235 20.6461 9.14131 19.8421 11.2778 19.8421H17.7222C19.8587 19.8421 21.9077 20.6461 23.4184 22.0773C24.9291 23.5085 25.7778 25.4497 25.7778 27.4737V29H29Z" fill="#0F4965"/>
</svg>
