<svg width="15" height="8" viewBox="0 0 15 8" fill="none" xmlns="http://www.w3.org/2000/svg">
<path d="M7.40068 5.9954C7.35938 6.03203 7.31596 6.06654 7.27704 6.10529C6.89129 6.49069 6.50474 6.87503 6.12217 7.26415C6.0483 7.339 5.98317 7.3674 5.877 7.32599C4.44731 6.77125 3.58897 5.74245 3.38007 4.22048C3.10817 2.238 4.50318 0.383982 6.4735 0.0532583C6.8636 -0.0118343 7.26127 -0.0172932 7.653 0.0370672C7.65697 0.095196 7.6117 0.114307 7.58416 0.141911C7.3059 0.423531 7.02314 0.701965 6.74673 0.986239C6.69055 1.04335 6.61865 1.08235 6.54022 1.09825C5.41182 1.36952 4.70254 2.07317 4.43381 3.20018C4.1717 4.29985 4.70095 5.5094 5.6652 6.08777C5.7343 6.12944 5.77481 6.12334 5.82617 6.06601C5.91116 5.97072 6.00276 5.88021 6.09093 5.78996C6.10469 5.72493 6.16453 5.69892 6.2053 5.65725C6.64056 5.21876 7.07671 4.78124 7.51374 4.3447C7.53567 4.32444 7.55611 4.30262 7.57489 4.27941C7.60614 4.23827 7.6432 4.19261 7.59846 4.14298C7.55371 4.09334 7.505 4.12201 7.4629 4.15466C7.40995 4.19633 7.35541 4.23827 7.30405 4.28445C7.15117 4.42095 6.97622 4.53037 6.78671 4.60801C6.25402 4.83734 5.73298 4.56872 5.47087 4.15333C5.19684 3.71909 5.29189 3.30661 5.55029 2.90767C5.6372 2.77999 5.7376 2.66208 5.84973 2.55598C6.1497 2.2595 6.44676 1.95983 6.74408 1.66069C6.78764 1.61407 6.83756 1.57385 6.89235 1.54125C7.3104 1.12187 7.73137 0.705416 8.14412 0.281261C8.22911 0.194201 8.29768 0.181195 8.40888 0.225521C9.7279 0.754254 10.5555 1.70714 10.8129 3.10807C11.2026 5.22911 9.72976 7.17974 7.6845 7.48366C7.34448 7.53887 6.99825 7.54415 6.65672 7.49932C6.64295 7.45287 6.68134 7.43694 6.70331 7.41518C7.00937 7.10675 7.31729 6.79965 7.62334 6.49122C7.66491 6.4487 7.71743 6.41856 7.77505 6.40416C8.8738 6.1098 9.67045 5.23442 9.79754 4.10476C9.92329 2.98677 9.49333 2.10024 8.56244 1.46268C8.50737 1.42526 8.47083 1.42101 8.42318 1.47463C8.33263 1.57602 8.2352 1.67131 8.14095 1.76925C8.12135 1.86587 8.04113 1.91736 7.976 1.97416C7.65035 2.25658 7.36176 2.57668 7.05385 2.87662C6.92147 3.00456 6.79121 3.13249 6.66704 3.26706C6.61806 3.32015 6.53334 3.39075 6.60244 3.46189C6.67154 3.53302 6.7425 3.44835 6.79545 3.39951C6.9686 3.24026 7.15314 3.09825 7.36838 2.99819C8.03028 2.69108 8.61274 3.06454 8.83885 3.59911C8.95137 3.86454 8.93337 4.14165 8.82164 4.40841C8.72309 4.64073 8.58099 4.85193 8.40306 5.03057C8.11685 5.31882 7.82906 5.60469 7.54418 5.89082C7.50348 5.93458 7.45476 5.97008 7.40068 5.9954V5.9954Z" fill="#24B8FE"/>
<path d="M1.31764 2.85929e-05C1.5977 0.00277781 1.76136 0.270826 1.62337 0.513582C1.40224 0.903421 1.20562 1.30261 1.06763 1.72544C0.476003 3.53992 0.653082 5.28549 1.59887 6.96214C1.72956 7.1928 1.67297 7.41329 1.45679 7.49934C1.26921 7.57412 1.08688 7.50786 0.974859 7.31817C0.633447 6.74424 0.379205 6.128 0.219573 5.48746C-0.232606 3.64934 0.0136127 1.89763 0.95823 0.232337C1.037 0.093502 1.13998 -0.00189586 1.31764 2.85929e-05Z" fill="#24B8FE"/>
<path d="M14.2219 3.49881C14.2185 4.93063 13.9502 6.0212 13.4229 7.04239C13.343 7.19599 13.2273 7.26741 13.0918 7.24719C13.0271 7.23728 12.9671 7.20613 12.9205 7.15824C12.8738 7.11035 12.8428 7.04818 12.8321 6.98069C12.8155 6.89007 12.848 6.8125 12.8886 6.73519C13.2259 6.09733 13.4496 5.4006 13.5489 4.67898C13.7328 3.31909 13.5227 2.02756 12.8996 0.813345C12.8546 0.725792 12.8106 0.638752 12.8343 0.533279C12.8639 0.402206 12.9544 0.305437 13.0686 0.285213C13.2175 0.259613 13.3297 0.310813 13.4058 0.451358C13.5848 0.784666 13.7347 1.13415 13.8538 1.49559C14.0967 2.23236 14.226 2.98885 14.2219 3.49881Z" fill="#24B8FE"/>
<path d="M2.18127 0.558039C2.44534 0.558039 2.59288 0.828671 2.45951 1.07954C2.24046 1.48422 2.07217 1.91573 1.95863 2.36381C1.62008 3.73618 1.7653 5.05366 2.39429 6.31624C2.41781 6.36345 2.44427 6.40901 2.46699 6.45622C2.5552 6.63957 2.50281 6.83527 2.34271 6.9264C2.17432 7.02192 1.98135 6.96345 1.88058 6.7801C1.66864 6.3965 1.50031 5.98916 1.3789 5.5661C0.909026 3.90937 1.06717 2.31806 1.85332 0.792166C1.92415 0.651361 2.01663 0.552275 2.18127 0.558039Z" fill="#24B8FE"/>
<path d="M13.1072 3.75251C13.0979 4.82555 12.9067 5.81896 12.5143 6.7463C12.4249 6.95753 12.2678 7.02887 12.1255 6.9238C11.9894 6.82427 11.9567 6.62105 12.0443 6.41313C12.3883 5.60243 12.569 4.69418 12.5701 3.77095C12.5712 2.84771 12.3926 1.93877 12.0505 1.12672C12.0075 1.02636 11.9763 0.925718 11.9997 0.810147C12.0124 0.745042 12.0402 0.686407 12.0793 0.64198C12.1185 0.597554 12.1672 0.569426 12.2191 0.561309C12.3412 0.542508 12.4357 0.598912 12.4968 0.738814C12.6755 1.14965 12.8163 1.58573 12.9166 2.0383C13.0403 2.596 13.1043 3.17267 13.1072 3.75251V3.75251Z" fill="#24B8FE"/>
<path d="M7.03938 1.6733C6.67858 2.03919 6.3177 2.40456 5.95673 2.76941C5.75014 2.97979 5.58507 3.21762 5.52436 3.51034C5.43657 3.93059 5.60321 4.25806 5.92309 4.51837C6.22877 4.76691 6.56968 4.80455 6.93345 4.6595C7.18052 4.56097 7.38738 4.40311 7.57768 4.22173C7.6355 4.16659 7.6999 4.13549 7.76719 4.1956C7.83448 4.25571 7.81082 4.32784 7.75483 4.38299C7.26647 4.86579 6.77724 5.34755 6.28712 5.82826C6.27412 5.83876 6.26023 5.84812 6.2456 5.85623C5.71755 5.56874 5.33564 5.15659 5.13955 4.58554C4.68878 3.27251 5.55563 1.87166 6.93845 1.67748C6.97199 1.67425 7.00568 1.67285 7.03938 1.6733V1.6733Z" fill="#222222"/>
<path d="M7.55424 5.8562C7.88208 5.5238 8.21227 5.19351 8.53672 4.85769C8.77436 4.61121 8.94534 4.32927 9.00338 3.9811C9.11397 3.3163 8.37593 2.54376 7.57411 2.90008C7.3443 3.00229 7.1477 3.14997 6.9647 3.3205C6.89803 3.38252 6.82091 3.47527 6.73097 3.38462C6.64104 3.29396 6.73254 3.21277 6.79581 3.14971C7.29071 2.65675 7.77175 2.14961 8.28312 1.67322C8.69881 1.90971 9.03031 2.22687 9.24573 2.65859C9.90926 3.98767 9.11109 5.58844 7.65437 5.85095C7.62112 5.85469 7.58769 5.85644 7.55424 5.8562Z" fill="#222222"/>
<path d="M2.23096 3.77025C2.23955 2.8903 2.46268 2.07714 2.91249 1.31872C3.00702 1.15971 3.13088 1.09977 3.30867 1.11892C3.3824 1.12762 3.45143 1.15713 3.50633 1.20342C3.56122 1.24971 3.5993 1.31053 3.61536 1.37757C3.64203 1.47364 3.61181 1.55985 3.56262 1.64278C3.17631 2.28774 2.9726 3.01236 2.97037 3.74944C2.96814 4.48652 3.16747 5.21218 3.54987 5.85912C3.67225 6.06877 3.62573 6.27432 3.42957 6.37121C3.23341 6.4681 3.02835 6.39694 2.90597 6.19166C2.46484 5.44952 2.23273 4.61688 2.23096 3.77025V3.77025Z" fill="#24B8FE"/>
<path d="M12.2692 3.64669C12.2629 4.61895 12.0448 5.4311 11.6003 6.1908C11.4905 6.37907 11.3113 6.45361 11.1225 6.3937C10.9008 6.32331 10.8086 6.09501 10.9281 5.8899C11.1676 5.48481 11.3377 5.04809 11.4322 4.59521C11.6401 3.56939 11.478 2.59557 10.9458 1.67373C10.817 1.44957 10.8792 1.23011 11.0958 1.14398C11.1831 1.10917 11.2815 1.10613 11.371 1.1355C11.4606 1.16486 11.5347 1.22444 11.5784 1.30216C11.9036 1.84127 12.1184 2.43078 12.2119 3.0413C12.2488 3.27898 12.274 3.51722 12.2692 3.64669Z" fill="#24B8FE"/>
</svg>
