<svg width="102" height="73" viewBox="0 0 102 73" fill="none" xmlns="http://www.w3.org/2000/svg">
<path d="M0 64.8653C0 61.2698 0.00314994 57.6743 0.0094499 54.0788L0.863994 54.0356C0.406347 52.1834 0.423897 50.3826 1.32974 48.6991C2.63653 46.2691 4.82757 45.1297 7.45465 44.6869C8.05598 44.597 8.66385 44.5581 9.27174 44.5708C13.5269 44.5708 17.7767 44.5911 22.0373 44.5708C23.4274 44.5538 24.8084 44.7974 26.1088 45.289C26.6191 45.4834 26.7946 45.4713 26.7838 44.8408C26.7487 42.5189 26.7703 40.1969 26.7703 37.8749V37.262L36.6077 47.2708L36.8494 47.1358C36.8494 46.4608 36.8669 45.7858 36.8494 45.1041C36.8372 44.7369 36.898 44.5641 37.3354 44.5722C40.5051 44.5911 43.6749 44.5911 46.8447 44.5722C47.2227 44.5722 47.3523 44.6869 47.3064 45.0501C47.2952 45.2452 47.2952 45.4409 47.3064 45.636C48.4188 45.1284 49.5123 44.7355 50.6895 44.6464C51.0567 44.6181 51.4239 44.5843 51.7924 44.583C56.5255 44.583 61.2586 44.583 65.9916 44.583C67.0109 44.583 68.0301 44.583 69.0372 44.7828C69.4071 44.8543 69.6676 44.5614 70.0524 44.5641C77.1088 44.5924 84.1652 44.5641 91.2203 44.5951C94.0957 44.6073 96.7984 45.289 98.9152 47.3734C101.981 50.4001 102.636 54.095 101.434 58.1032C100.129 62.4609 96.6526 64.9584 92.0316 64.9773C84.1072 65.0084 76.1827 64.9773 68.2583 65.0043C67.833 65.0043 67.6332 64.6911 67.2917 64.6223C67.2377 65.2649 66.7395 64.9692 66.4533 64.9719C63.5873 64.9949 60.7213 64.9854 57.8552 64.9854C56.8535 64.9854 56.8535 64.9854 56.7577 63.9837C53.6284 65.3796 50.4991 65.246 47.328 63.9554V72.2457L37.5095 62.4285L37.2787 62.5433C37.2787 63.1737 37.2571 63.8042 37.2854 64.4333C37.3043 64.8383 37.2247 64.9949 36.7657 64.9922C33.6175 64.9692 30.4693 64.9503 27.3157 65.0003C26.5057 65.0138 26.9107 64.4184 26.7217 64.1322C23.3076 65.435 20.2418 65.0772 17.6768 63.9824C17.6525 64.0094 17.6066 64.035 17.6052 64.0634C17.5593 65.0084 17.5593 65.0084 16.6049 64.9814C15.911 64.9611 15.2171 64.9422 14.5232 64.9395C9.83424 64.9215 5.14572 64.9058 0.457647 64.8923C0.303748 64.8896 0.151199 64.8747 0 64.8653Z" fill="#222222"/>
<path d="M52.0866 30.4931C51.876 30.6794 51.6546 30.8549 51.4561 31.052C49.4892 33.0122 47.5182 34.967 45.5675 36.9461C45.1908 37.3268 44.8587 37.4712 44.3174 37.2606C37.0274 34.4392 32.6507 29.2066 31.5856 21.4657C30.1992 11.3827 37.3123 1.95297 47.3589 0.270876C49.348 -0.0601904 51.3757 -0.0879549 53.3731 0.188527C53.3934 0.484175 53.1625 0.581374 53.0221 0.721773C51.6033 2.15411 50.1615 3.57026 48.7521 5.0161C48.4656 5.30658 48.099 5.50494 47.6991 5.58579C41.9454 6.96548 38.3288 10.5443 36.9586 16.2764C35.6221 21.8694 38.3207 28.0213 43.2374 30.9629C43.5897 31.1749 43.7963 31.1438 44.0582 30.8522C44.4915 30.3676 44.9586 29.9072 45.4082 29.4482C45.4784 29.1175 45.7835 28.9852 45.9914 28.7732C48.2107 26.5431 50.4346 24.3178 52.663 22.0975C52.7748 21.9945 52.8791 21.8835 52.9749 21.7654C53.1342 21.5562 53.3232 21.324 53.095 21.0715C52.8669 20.8191 52.6185 20.9649 52.4038 21.1309C52.1338 21.3429 51.8557 21.5562 51.5938 21.7911C50.8143 22.4854 49.9223 23.0418 48.9559 23.4367C46.2398 24.6031 43.583 23.2369 42.2465 21.1242C40.8492 18.9156 41.3339 16.8177 42.6515 14.7887C43.0946 14.1393 43.6066 13.5396 44.1783 12.9999C45.7079 11.492 47.2226 9.96786 48.7386 8.44642C48.9607 8.20928 49.2152 8.00475 49.4946 7.83893C51.6262 5.70594 53.7727 3.5878 55.8773 1.43052C56.3107 0.987721 56.6603 0.921572 57.2273 1.14702C63.953 3.8362 68.1731 8.68267 69.4853 15.8079C71.4725 26.5957 63.9624 36.5168 53.5338 38.0625C51.8 38.3433 50.0346 38.3702 48.2931 38.1422C48.2229 37.9059 48.4186 37.8249 48.5307 37.7142C50.0913 36.1455 51.6613 34.5836 53.2219 33.0149C53.4339 32.7986 53.7016 32.6454 53.9955 32.5721C59.5979 31.075 63.66 26.6227 64.308 20.8771C64.9493 15.191 62.7569 10.682 58.0103 7.43933C57.7295 7.24898 57.5432 7.22738 57.3002 7.50008C56.8385 8.01578 56.3417 8.50042 55.8611 8.99857C55.7613 9.48997 55.3522 9.75186 55.0201 10.0408C53.3596 11.4772 51.8881 13.1052 50.3181 14.6307C49.6431 15.2814 48.9789 15.9321 48.3457 16.6166C48.096 16.8866 47.664 17.2457 48.0163 17.6075C48.3687 17.9693 48.7305 17.5386 49.0005 17.2902C49.8834 16.4802 50.8243 15.758 51.9219 15.249C55.2968 13.6871 58.2668 15.5865 59.4197 18.3054C59.9935 19.6554 59.9017 21.0648 59.332 22.4215C58.8295 23.6031 58.1049 24.6773 57.1976 25.5859C55.7383 27.052 54.2709 28.5059 52.8183 29.9612C52.6107 30.1838 52.3623 30.3644 52.0866 30.4931V30.4931Z" fill="#24B8FE"/>
<path d="M20.5225 0.666431C21.8185 0.679931 22.5758 1.99617 21.9373 3.18821C20.914 5.1025 20.0041 7.06269 19.3656 9.13898C16.6278 18.0489 17.4472 26.6205 21.8239 34.8536C22.4287 35.9863 22.1668 37.0689 21.1664 37.4915C20.2984 37.8587 19.4547 37.5333 18.9363 36.6018C17.3564 33.7836 16.1798 30.7576 15.4411 27.6123C13.3487 18.5862 14.488 9.98452 18.8593 1.80717C19.2238 1.12543 19.7004 0.656981 20.5225 0.666431Z" fill="#24B8FE"/>
<path d="M86.6802 17.7492C86.6613 25.2997 85.1803 31.0507 82.2697 36.4358C81.8283 37.2458 81.1898 37.6224 80.4419 37.5158C80.0849 37.4635 79.7537 37.2993 79.496 37.0467C79.2384 36.7942 79.0675 36.4663 79.0082 36.1104C78.9164 35.6325 79.0959 35.2235 79.32 34.8158C81.182 31.4521 82.4171 27.778 82.965 23.9727C83.9802 16.8015 82.8205 9.99081 79.3808 3.5878C79.1324 3.1261 78.8894 2.66711 79.0203 2.11091C79.1837 1.41971 79.6832 0.909417 80.3136 0.802767C81.1358 0.667768 81.7554 0.937766 82.1753 1.67891C83.1631 3.43656 83.9909 5.27953 84.6484 7.18553C85.989 11.0708 86.7031 15.06 86.6802 17.7492Z" fill="#24B8FE"/>
<path d="M25.3703 3.3961C26.7041 3.3961 27.4493 4.72719 26.7756 5.96109C25.6692 7.95147 24.8192 10.0739 24.2457 12.2777C22.5357 19.0277 23.2692 25.5076 26.4462 31.7176C26.565 31.9498 26.6987 32.1739 26.8134 32.4061C27.2589 33.3079 26.9943 34.2704 26.1857 34.7186C25.3352 35.1884 24.3605 34.9009 23.8515 33.9991C22.781 32.1123 21.9308 30.1088 21.3176 28.028C18.9443 19.8795 19.7431 12.0527 23.7138 4.54765C24.0716 3.8551 24.5387 3.36775 25.3703 3.3961Z" fill="#24B8FE"/>
<path d="M81.1264 19.0965C81.0683 24.3358 79.8695 29.1863 77.4085 33.7142C76.8482 34.7456 75.8628 35.0939 74.9704 34.5809C74.1172 34.0949 73.912 33.1027 74.4615 32.0875C76.6182 28.1291 77.7516 23.6944 77.7584 19.1865C77.7652 14.6787 76.6454 10.2406 74.5006 6.27564C74.2306 5.78559 74.0349 5.29419 74.182 4.7299C74.2615 4.41201 74.4356 4.12572 74.6812 3.9088C74.9268 3.69188 75.2324 3.55454 75.5577 3.51491C76.3231 3.42311 76.9157 3.69851 77.2991 4.3816C78.4192 6.3876 79.3026 8.51684 79.9316 10.7266C80.7068 13.4496 81.1087 16.2653 81.1264 19.0965V19.0965Z" fill="#24B8FE"/>
<path d="M49.488 7.83892C47.6349 9.72891 45.7813 11.6162 43.9274 13.5008C42.8663 14.5875 42.0185 15.816 41.7066 17.328C41.2557 19.4988 42.1116 21.1903 43.7546 22.5349C45.3246 23.8188 47.0755 24.0132 48.9439 23.2639C50.2129 22.755 51.2754 21.9396 52.2527 21.0027C52.5497 20.7178 52.8805 20.5572 53.2261 20.8677C53.5717 21.1782 53.4502 21.5508 53.1626 21.8356C50.6544 24.3295 48.1416 26.818 45.6243 29.3011C45.5575 29.3553 45.4861 29.4036 45.411 29.4455C42.6989 27.9605 40.7373 25.8316 39.7302 22.8819C37.415 16.0995 41.8673 8.86356 48.9696 7.86052C49.1418 7.84383 49.3149 7.83662 49.488 7.83892V7.83892Z" fill="#222222"/>
<path d="M52.0867 30.4931C53.7796 28.7854 55.4846 27.0885 57.16 25.3632C58.3871 24.0969 59.27 22.6483 59.5697 20.8596C60.1408 17.4441 56.3297 13.4751 52.1893 15.3057C51.0027 15.8309 49.9875 16.5896 49.0425 17.4657C48.6982 17.7843 48.3 18.2609 47.8356 17.7951C47.3712 17.3294 47.8437 16.9122 48.1704 16.5882C50.7259 14.0556 53.2099 11.4502 55.8505 9.00262C57.997 10.2176 59.7088 11.8471 60.8212 14.0651C64.2474 20.8933 60.1259 29.1175 52.6038 30.4661C52.4321 30.4853 52.2594 30.4944 52.0867 30.4931Z" fill="#222222"/>
<path d="M25.5486 19.191C25.5877 14.8508 26.6043 10.84 28.6536 7.09914C29.0842 6.31479 29.6485 6.01915 30.4585 6.11364C30.7944 6.15652 31.1089 6.30208 31.359 6.53042C31.6091 6.75876 31.7826 7.05874 31.8557 7.38939C31.9772 7.86323 31.8395 8.28848 31.6154 8.69753C29.8555 11.8787 28.9274 15.4528 28.9173 19.0884C28.9071 22.7239 29.8152 26.3032 31.5574 29.4941C32.1149 30.5282 31.903 31.5421 31.0093 32.02C30.1156 32.4979 29.1814 32.1469 28.6239 31.1344C26.6141 27.4739 25.5567 23.3669 25.5486 19.191V19.191Z" fill="#24B8FE"/>
<path d="M75.5658 18.5673C75.5375 23.322 74.556 27.2937 72.5567 31.0088C72.0626 31.9295 71.2566 32.294 70.4075 32.0011C69.4098 31.6568 68.9954 30.5404 69.5327 29.5373C70.6104 27.5563 71.3754 25.4206 71.8007 23.2059C72.7358 18.1893 72.0063 13.427 69.6123 8.91892C69.0332 7.82273 69.3126 6.74949 70.2873 6.32829C70.6798 6.15803 71.1223 6.1432 71.5253 6.28681C71.9283 6.43042 72.2617 6.72174 72.4581 7.10183C73.9211 9.73826 74.8871 12.6211 75.308 15.6068C75.474 16.7691 75.5874 17.9342 75.5658 18.5673Z" fill="#24B8FE"/>
<path d="M58.9988 54.0707C59.4038 57.7697 56.8253 61.1987 53.2316 61.7292C49.3693 62.2989 45.8256 59.9027 45.1088 56.2159C44.1638 51.3302 48.3096 47.6704 52.0315 47.7622C57.1952 47.8891 62.3643 47.8162 67.5308 47.8351C68.5015 47.8379 69.4457 48.1526 70.224 48.7328C71.0023 49.313 71.5735 50.128 71.8534 51.0575C72.1323 51.9783 72.1041 52.9649 71.7728 53.8682C71.4416 54.7715 70.8255 55.5424 70.0174 56.0647C69.4963 56.4008 69.6313 56.5277 69.9472 56.926C70.5831 57.7278 71.3485 57.8952 72.3246 57.8804C76.3394 57.8183 80.3557 57.8399 84.3719 57.8062C84.8511 57.8062 85.0037 57.9088 84.9821 58.4055C84.9375 59.3802 84.9551 60.3576 84.9821 61.3337C84.9821 61.6928 84.897 61.821 84.515 61.8197C79.5209 61.808 74.526 61.808 69.5301 61.8197C69.1467 61.8197 68.9347 61.605 68.708 61.3782C67.3274 60.0003 65.9459 58.6211 64.5635 57.2405C64.415 57.0934 64.3029 56.8949 63.9951 56.8085V60.9624C63.9951 61.8116 63.9951 61.8116 63.1271 61.8116C62.2145 61.8116 61.3032 61.8008 60.3907 61.8183C60.0505 61.8183 59.9479 61.709 59.9492 61.3688C59.9614 58.6796 59.9681 55.9891 59.9492 53.2985C59.9492 52.849 60.1423 52.8166 60.4892 52.8179C62.6168 52.8287 64.7444 52.8179 66.872 52.8179H67.3283C67.6631 52.8179 67.9709 52.7194 67.9736 52.3373C67.9763 51.9553 67.6955 51.8338 67.3458 51.8432C67.1501 51.8432 66.9543 51.8432 66.7599 51.8432C61.8999 51.8432 57.0364 51.8432 52.1692 51.8432C50.4966 51.8432 49.287 52.8827 49.0642 54.4784C48.8334 56.0984 50.0727 57.5956 51.8155 57.7927C53.3397 57.9641 54.9002 56.6506 54.9988 55.1021C55.0177 54.8011 54.988 54.496 54.9812 54.1922C54.9812 53.9222 55.2094 53.8898 55.3862 53.8804C56.4789 53.8192 57.5743 53.8214 58.6667 53.8871C58.7314 53.8943 58.7941 53.9143 58.8511 53.9458C58.9081 53.9773 58.9583 54.0197 58.9988 54.0707V54.0707Z" fill="#FEFEFE"/>
<path d="M19.4062 54.0613C19.2604 55.067 19.3657 56.0039 20.1028 56.7883C21.087 57.8385 22.495 58.1072 23.7113 57.4632C24.3034 57.1551 24.7756 56.6581 25.0532 56.0512C25.3307 55.4442 25.3977 54.7619 25.2436 54.1126C25.0734 53.468 24.6955 52.8975 24.1684 52.4895C23.6412 52.0814 22.9942 51.8585 22.3276 51.8554C19.4197 51.8338 16.5118 51.8365 13.6026 51.8297C12.3012 51.8297 10.9985 51.8297 9.69574 51.8297C9.54454 51.8297 9.39199 51.823 9.24079 51.8297C8.94244 51.8486 8.62519 51.9269 8.61709 52.2671C8.60899 52.6478 8.94919 52.7288 9.26374 52.7572C9.80374 52.8085 10.3518 52.8058 10.8837 52.9016C12.5888 53.2108 14.0427 53.8858 14.6003 55.7096C15.3967 58.3124 13.9253 60.6479 11.147 61.2216C10.2924 61.3985 9.42574 61.4174 8.55904 61.4201C6.80406 61.4201 5.04232 61.4093 3.28463 61.4295C2.85533 61.4295 2.72978 61.3067 2.74463 60.8787C2.77568 59.9256 2.78513 58.9685 2.74463 58.0167C2.72168 57.4903 2.85398 57.3134 3.41153 57.3256C5.21242 57.362 7.01465 57.339 8.81149 57.339C8.96404 57.339 9.11524 57.339 9.26779 57.339C9.58099 57.3323 9.85504 57.2216 9.85909 56.8774C9.86314 56.5331 9.60934 56.413 9.28399 56.4062C8.61167 56.3992 7.94214 56.3186 7.28735 56.1659C4.85737 55.5814 3.74903 54.1153 3.88537 51.6178C3.99202 49.6806 5.56881 48.1902 7.7936 47.9458C8.48335 47.8736 9.17637 47.8371 9.86989 47.8365C14.0369 47.8275 18.2043 47.8275 22.3722 47.8365C25.7647 47.8365 28.7063 50.2394 29.2571 53.582C29.7188 56.3779 28.8251 58.739 26.5193 60.4413C24.2419 62.1221 21.7201 62.3192 19.2132 61.0907C16.7062 59.8622 15.3536 57.7535 15.3063 54.901C15.3063 54.6215 15.2577 54.3353 15.3657 54.0626C15.5165 53.9352 15.7083 53.8667 15.9057 53.8696C16.8957 53.8453 17.8857 53.8453 18.8757 53.8696C18.9726 53.8628 19.0699 53.8763 19.1612 53.9093C19.2526 53.9423 19.336 53.9941 19.4062 54.0613V54.0613Z" fill="#FEFEFE"/>
<path d="M89.8082 57.8183C90.5453 57.8048 91.2932 57.8602 92.0181 57.7657C93.707 57.547 94.7789 56.2037 94.6587 54.5567C94.5467 53.0312 93.2453 51.8567 91.6118 51.8567C89.3532 51.8446 87.0947 51.8567 84.8375 51.8567C82.3184 51.8567 79.7994 51.8567 77.2776 51.8567C76.9063 51.8567 76.7052 51.8756 76.6998 52.3562C76.6998 52.8733 76.9576 52.8422 77.3032 52.8395C78.606 52.8395 79.9087 52.8517 81.2182 52.8287C81.6137 52.8206 81.7447 52.9246 81.7325 53.335C81.7042 54.3529 81.7109 55.3735 81.7325 56.3941C81.7325 56.7235 81.6596 56.8409 81.3046 56.8396C78.5677 56.8252 75.8317 56.8252 73.0966 56.8396C72.7942 56.8396 72.6917 56.7667 72.6917 56.444C72.7025 53.7103 72.7065 50.9766 72.6917 48.2428C72.6917 47.7757 72.9616 47.85 73.2424 47.85H82.6235C85.7069 47.85 88.7903 47.8068 91.8737 47.8621C94.7087 47.9134 96.8295 49.3093 98.0431 51.823C99.2568 54.3367 99.0151 56.8504 97.2804 59.0981C96.0343 60.7181 94.386 61.686 92.2935 61.7832C90.201 61.8804 88.1274 61.7967 86.0458 61.8264C85.7474 61.8264 85.6853 61.6914 85.6853 61.4214C85.6907 59.0815 85.6907 56.7379 85.6853 54.3907C85.6853 54.0019 85.9189 53.8993 86.2253 53.8858C87.2234 53.8408 88.2215 53.8408 89.2196 53.8858C89.5854 53.902 89.7434 54.091 89.7353 54.4771C89.7137 55.3883 89.7218 56.2996 89.7353 57.2108C89.7137 57.4066 89.6205 57.6361 89.8082 57.8183Z" fill="#FEFEFE"/>
<path d="M34.0712 54.7241C34.0712 57.0016 34.0577 59.0819 34.082 61.1622C34.082 61.6469 33.9983 61.8521 33.4502 61.8264C32.4553 61.7765 31.4549 61.8048 30.4573 61.8156C30.1697 61.8156 30.0226 61.7589 30.0239 61.4255C30.0365 56.0255 30.0433 50.6255 30.0442 45.2256C30.0442 45.2134 30.0779 45.2013 30.2453 45.0838L39.8411 54.9995C40.08 54.5473 40.0152 54.3097 40.0166 54.0829C40.0233 52.1929 40.0395 50.3097 40.0071 48.4237C39.999 47.9242 40.1421 47.8 40.6268 47.8176C41.646 47.8554 42.6666 47.8392 43.6858 47.8243C43.9882 47.8243 44.1097 47.9026 44.1097 48.2226C44.103 53.6387 44.1097 59.0549 44.1097 64.6587L34.0712 54.7241Z" fill="#FEFEFE"/>
<path d="M89.8081 57.8183C89.5124 57.7076 89.6366 57.4511 89.6339 57.2594C89.6204 56.3698 89.6123 55.4815 89.6339 54.5918C89.6434 54.2098 89.5421 54.0518 89.1277 54.0613C88.1733 54.0869 87.2175 54.0896 86.263 54.0613C85.8175 54.0478 85.723 54.226 85.723 54.6337C85.7379 56.8234 85.7419 59.013 85.723 61.2027C85.723 61.6563 85.8945 61.7346 86.2941 61.7346C88.2893 61.7346 90.2846 61.7535 92.2786 61.767C92.1733 61.871 92.0383 61.848 91.91 61.848C89.9795 61.848 88.0477 61.8399 86.1159 61.8575C85.7217 61.8575 85.5921 61.7441 85.5948 61.3418C85.6119 58.6526 85.6119 55.963 85.5948 53.2729C85.5948 52.8679 85.7176 52.7531 86.1132 52.7626C87.154 52.7869 88.1976 52.7923 89.2384 52.7626C89.6933 52.7491 89.7784 52.9354 89.7784 53.3363C89.7635 54.8308 89.6731 56.3252 89.8081 57.8183Z" fill="#BFBFBF"/>
<path d="M58.9986 54.0707C57.8808 54.0707 56.7617 54.0707 55.6439 54.0707C55.4185 54.0707 55.1647 53.9843 54.9757 54.1976L54.2764 52.7693C55.7222 52.7693 57.1208 52.7693 58.518 52.7693C58.8596 52.7693 58.8555 53.0042 58.9163 53.2418C59.0067 53.5082 59.0349 53.7918 58.9986 54.0707V54.0707Z" fill="#BFBFBF"/>
<path d="M19.4062 54.0613H15.3671C15.354 53.9991 15.3467 53.9358 15.3455 53.8723C15.4197 52.7612 15.4197 52.7612 16.5443 52.7612H20.1055L19.4062 54.0613Z" fill="#C0C0C0"/>
</svg>
