<svg width="239" height="61" viewBox="0 0 239 61" fill="none" xmlns="http://www.w3.org/2000/svg">
<path d="M56.8801 45.3073C56.6191 45.5365 56.3447 45.7525 56.0988 45.995C53.6613 48.4073 51.2205 50.8128 48.8014 53.2483C48.3364 53.7168 47.9248 53.8946 47.254 53.6354C38.2201 50.1633 32.7947 43.724 31.4764 34.1981C29.7533 21.7914 38.5697 10.1872 51.0248 8.1155C53.4891 7.7081 56.0014 7.67393 58.4761 8.01416C58.5028 8.37798 58.2168 8.4976 58.0411 8.67037C56.2745 10.433 54.4928 12.1757 52.7446 13.955C52.3904 14.3127 51.9365 14.5568 51.4414 14.6561C44.3113 16.3539 39.8278 20.7581 38.1314 27.812C36.4752 34.6948 39.8194 42.2654 45.9106 45.8854C46.3489 46.1462 46.6049 46.108 46.9278 45.7492C47.4648 45.1528 48.0436 44.5863 48.6007 44.0214C48.6877 43.6144 49.0674 43.4516 49.3251 43.1907C52.0754 40.4463 54.8313 37.7079 57.5928 34.9756C57.7309 34.8483 57.86 34.7118 57.9792 34.5669C58.175 34.3094 58.4092 34.0236 58.1281 33.713C57.8471 33.4023 57.5376 33.5817 57.2699 33.7861C56.9353 34.0469 56.5923 34.3094 56.2661 34.5984C55.2999 35.4533 54.1938 36.1382 52.9955 36.6236C49.6312 38.059 46.3389 36.3777 44.681 33.7778C42.9495 31.0599 43.5501 28.4782 45.1829 25.9812C45.7238 25.183 46.3503 24.4455 47.0516 23.7817C48.947 21.926 50.8224 20.0504 52.7011 18.1781C52.9765 17.8858 53.2925 17.6341 53.6396 17.4305C56.2812 14.8056 58.9395 12.199 61.5493 9.54422C62.0846 8.99931 62.5179 8.91791 63.2222 9.19535C71.5585 12.5047 76.7864 18.4688 78.4125 27.2372C80.8751 40.5127 71.5685 52.7217 58.645 54.6239C56.4965 54.9695 54.3088 55.0025 52.1507 54.7219C52.0637 54.4312 52.3079 54.3315 52.4451 54.1953C54.3802 52.2648 56.318 50.3372 58.2586 48.4122C58.5218 48.1468 58.8534 47.9583 59.2172 47.8673C66.1599 46.0249 71.1955 40.5459 71.9985 33.4754C72.8048 26.4763 70.0963 20.9325 64.2042 16.9454C63.8579 16.7111 63.6254 16.6845 63.3243 17.0201C62.7538 17.6547 62.1382 18.2512 61.5409 18.8642C61.4171 19.4689 60.9119 19.7912 60.4987 20.1467C58.441 21.9143 56.6191 23.9179 54.6718 25.7952C53.8353 26.5959 53.0123 27.3967 52.2293 28.239C51.9181 28.5712 51.3828 29.0131 51.8211 29.4584C52.2594 29.9036 52.7061 29.3736 53.039 29.0679C54.1331 28.0712 55.3008 27.1824 56.6593 26.556C60.8416 24.6339 64.5221 26.9714 65.9508 30.3173C66.6635 31.9786 66.548 33.713 65.8421 35.3826C65.2206 36.8374 64.3226 38.1595 63.1971 39.2767C61.397 41.0726 59.5852 42.8618 57.7818 44.6527C57.5267 44.9268 57.2205 45.1491 56.8801 45.3073Z" fill="#24B8FE"/>
<path d="M17.7634 8.60225C19.3677 8.61887 20.3063 10.2386 19.515 11.7056C18.2469 14.0613 17.1193 16.4735 16.328 19.0286C12.9353 29.9933 13.9513 40.5415 19.3761 50.6733C20.1239 52.0671 19.801 53.3995 18.5614 53.9195C17.4857 54.3714 16.4384 53.971 15.796 52.8247C13.838 49.3568 12.3805 45.6328 11.4664 41.762C8.87338 30.6545 10.2853 20.0692 15.7023 10.0061C16.1524 9.1671 16.7429 8.59062 17.7634 8.60225Z" fill="#24B8FE"/>
<path d="M99.7459 29.6245C99.7241 38.9162 97.8889 45.9934 94.282 52.6203C93.735 53.6171 92.9337 54.0806 92.0152 53.9494C91.5726 53.8858 91.1617 53.6844 90.8415 53.3742C90.5214 53.0641 90.3085 52.6611 90.2335 52.2233C90.1214 51.6352 90.3439 51.1318 90.62 50.6301C92.9283 46.4911 94.4588 41.9696 95.1369 37.2864C96.3966 28.4616 94.9579 20.0803 90.6953 12.2007C90.3874 11.6325 90.0863 11.0676 90.2486 10.3832C90.451 9.53259 91.07 8.90462 91.8529 8.77337C92.8701 8.60724 93.638 8.9395 94.1582 9.85156C95.3823 12.0149 96.4085 14.2828 97.2247 16.628C98.891 21.406 99.7743 26.3152 99.7459 29.6245Z" fill="#24B8FE"/>
<path d="M23.7692 11.9614C25.4221 11.9614 26.3472 13.5995 25.5124 15.1179C24.14 17.5667 23.0865 20.1787 22.3773 22.8912C20.2583 31.1978 21.1667 39.172 25.1026 46.8141C25.2498 47.0998 25.4154 47.3756 25.5593 47.6613C26.1097 48.7711 25.7834 49.9556 24.7797 50.5072C23.7257 51.0853 22.5179 50.7314 21.8888 49.6217C20.5609 47.3005 19.5072 44.8349 18.7487 42.2737C15.8077 32.235 16.797 22.5977 21.7165 13.3619C22.1615 12.5263 22.7404 11.9266 23.7692 11.9614Z" fill="#24B8FE"/>
<path d="M92.865 31.2825C92.7914 37.73 91.3059 43.6991 88.2561 49.2711C87.5618 50.5404 86.3406 50.969 85.2347 50.3427C84.1774 49.7446 83.9248 48.5236 84.604 47.2742C87.2765 42.4028 88.6807 36.9454 88.6889 31.398C88.697 25.8506 87.309 20.3891 84.6509 15.51C84.3163 14.9069 84.0737 14.3022 84.2577 13.6078C84.3562 13.2168 84.5716 12.8647 84.8756 12.5978C85.1797 12.3308 85.558 12.1617 85.9608 12.1126C86.911 11.9996 87.6438 12.3385 88.1206 13.1792C89.5073 15.6482 90.6015 18.2683 91.3811 20.9873C92.3424 24.3366 92.8415 27.7999 92.865 31.2825V31.2825Z" fill="#24B8FE"/>
<path d="M53.658 17.4288C51.3593 19.7546 49.0618 22.0771 46.7654 24.3963C45.4505 25.7337 44.4049 27.2438 44.0151 29.1061C43.4564 31.7775 44.517 33.8592 46.553 35.5138C48.4969 37.0937 50.6684 37.333 52.9821 36.4109C54.5547 35.7846 55.8713 34.7812 57.0825 33.6282C57.4505 33.2777 57.8604 33.08 58.2887 33.4621C58.717 33.8442 58.5664 34.3027 58.2101 34.6533C55.104 37.7223 51.99 40.7846 48.8683 43.8403C48.7859 43.9075 48.6974 43.967 48.604 44.0181C45.2431 42.1906 42.814 39.5707 41.5659 35.9408C38.6968 27.5944 44.2142 18.6897 53.0139 17.4554C53.2279 17.4348 53.4429 17.426 53.658 17.4288V17.4288Z" fill="#222222"/>
<path d="M56.8802 45.3073C58.978 43.2057 61.091 41.1174 63.1671 38.9943C64.6895 37.436 65.7836 35.6534 66.1533 33.4522C66.8626 29.249 62.1382 24.3648 57.009 26.6175C55.5385 27.2638 54.2787 28.1974 53.1094 29.2756C52.6828 29.6677 52.1892 30.2541 51.6137 29.681C51.0382 29.1078 51.6238 28.5945 52.0286 28.1958C55.1955 25.0792 58.2721 21.8728 61.5443 18.8609C64.2043 20.356 66.3273 22.3613 67.7058 25.0908C71.95 33.4937 66.8425 43.6144 57.5209 45.274C57.3082 45.2977 57.0942 45.3088 56.8802 45.3073V45.3073Z" fill="#222222"/>
<path d="M23.9834 31.3988C24.0336 26.0576 25.2933 21.1219 27.8312 16.5184C28.3665 15.5532 29.0641 15.1894 30.0679 15.3056C30.4842 15.3584 30.8739 15.5375 31.1838 15.8185C31.4937 16.0995 31.7087 16.4687 31.7994 16.8756C31.9516 17.4587 31.7793 17.982 31.5033 18.4854C29.3232 22.4004 28.1735 26.7986 28.1607 31.2723C28.1478 35.746 29.2722 40.1505 31.4297 44.0779C32.1206 45.3504 31.8579 46.5981 30.7605 47.1862C29.663 47.7743 28.4953 47.3424 27.8044 46.0964C25.3105 41.5926 23.9965 36.5385 23.9834 31.3988Z" fill="#24B8FE"/>
<path d="M85.9742 30.6312C85.9391 36.4824 84.7212 41.37 82.2435 45.9419C81.6312 47.0749 80.6342 47.5234 79.5819 47.1629C78.3456 46.7393 77.832 45.3654 78.4961 44.1311C79.8323 41.6935 80.7804 39.0652 81.3067 36.3395C82.4677 30.1672 81.5643 24.3066 78.5965 18.7579C77.8772 17.4089 78.2234 16.0881 79.433 15.5698C79.9191 15.3604 80.4672 15.3422 80.9664 15.5189C81.4655 15.6956 81.8784 16.0541 82.1214 16.5217C83.9353 19.7657 85.1325 23.3136 85.653 26.988C85.8588 28.4184 85.9993 29.8521 85.9742 30.6312Z" fill="#24B8FE"/>
<path d="M106.682 43.1675L106.692 29.8936L107.753 29.8404C107.185 27.5611 107.206 25.3449 108.33 23.2733C109.949 20.2829 112.664 18.8808 115.92 18.3342C116.665 18.2256 117.417 18.1801 118.17 18.198C123.443 18.198 128.71 18.2212 133.991 18.1897C135.713 18.1685 137.424 18.4683 139.035 19.0735C139.669 19.3127 139.886 19.2978 139.871 18.5203C139.826 15.6645 139.853 12.807 139.853 9.94958V9.19534C144.012 13.3968 148.027 17.457 152.044 21.5156L152.343 21.3495C152.343 20.5188 152.363 19.6882 152.343 18.8575C152.326 18.4056 152.403 18.193 152.944 18.193C156.872 18.2174 160.8 18.2174 164.728 18.193C165.198 18.193 165.357 18.3342 165.3 18.7811C165.286 19.0212 165.286 19.262 165.3 19.5021C166.679 18.8775 168.035 18.394 169.493 18.2827C169.948 18.2495 170.404 18.2063 170.859 18.2063C176.725 18.2063 182.59 18.2063 188.455 18.2063C189.72 18.2063 190.983 18.2063 192.23 18.4522C192.688 18.5402 193.012 18.1797 193.488 18.1814C202.232 18.2179 210.977 18.1814 219.721 18.2196C223.284 18.2362 226.632 19.0752 229.257 21.6402C233.054 25.3649 233.867 29.9119 232.378 34.8443C230.761 40.207 226.451 43.2804 220.726 43.302C210.906 43.3403 201.084 43.302 191.264 43.3369C190.737 43.3369 190.49 42.9515 190.066 42.8668C190.001 43.6576 189.382 43.2937 189.027 43.2954C185.476 43.3253 181.924 43.3137 178.373 43.3137C177.131 43.3137 177.131 43.3137 177.012 42.0793C173.135 43.7988 169.257 43.6343 165.329 42.0461V52.2482L153.16 40.1688L152.874 40.31C152.874 41.0842 152.848 41.86 152.884 42.6359C152.907 43.1259 152.807 43.327 152.239 43.322C148.338 43.2954 144.435 43.2721 140.529 43.3336C139.525 43.3502 140.027 42.6159 139.793 42.2637C135.562 43.8686 131.771 43.4266 128.592 42.0793C128.561 42.1125 128.505 42.1458 128.504 42.179C128.445 43.3502 128.447 43.3419 127.264 43.3104C126.404 43.2838 125.544 43.2622 124.684 43.2589C118.874 43.2378 113.063 43.2184 107.252 43.2007C107.057 43.1941 106.869 43.1774 106.682 43.1675Z" fill="#222222"/>
<path d="M179.795 29.8837C180.296 34.4357 177.099 38.6554 172.648 39.3083C167.861 40.0094 163.468 37.0605 162.582 32.5218C161.411 26.5112 166.546 22.0057 171.159 22.1204C177.559 22.2765 183.963 22.1852 190.368 22.2101C191.572 22.2118 192.744 22.598 193.71 23.3118C194.677 24.0256 195.386 25.029 195.734 26.174C196.08 27.3073 196.045 28.5216 195.634 29.6334C195.224 30.7452 194.46 31.6943 193.459 32.3374C192.813 32.7511 192.979 32.9056 193.372 33.3973C194.158 34.3842 195.109 34.5902 196.316 34.5719C201.294 34.4938 206.271 34.522 211.246 34.4789C211.841 34.4789 212.03 34.6051 212.002 35.2181C211.948 36.4176 211.969 37.6204 212.002 38.8215C212.012 39.2634 211.897 39.4196 211.423 39.4196C205.236 39.4041 199.046 39.4041 192.854 39.4196C192.378 39.4196 192.117 39.1538 191.836 38.8763C190.12 37.1801 188.412 35.4773 186.694 33.7828C186.511 33.6017 186.373 33.3575 185.991 33.2528V38.3647C185.991 39.4096 185.991 39.4096 184.914 39.4096C183.784 39.4096 182.654 39.3947 181.524 39.4096C181.103 39.4179 180.976 39.2767 180.977 38.8581C180.992 35.5471 180.999 32.2361 180.977 28.9251C180.977 28.3735 181.215 28.3337 181.646 28.3353C184.283 28.347 186.92 28.3353 189.556 28.3353H190.122C190.536 28.3353 190.916 28.2141 190.92 27.7422C190.923 27.2704 190.575 27.1242 190.142 27.1359C189.901 27.1359 189.658 27.1359 189.416 27.1359C183.393 27.1359 177.367 27.1359 171.336 27.1359C169.263 27.1359 167.763 28.4167 167.488 30.3804C167.201 32.374 168.736 34.2164 170.896 34.4589C172.787 34.6699 174.72 33.0535 174.841 31.1479C174.866 30.7758 174.829 30.402 174.821 30.0282C174.821 29.6959 175.102 29.6561 175.323 29.6444C176.677 29.5683 178.034 29.5711 179.388 29.6527C179.549 29.6735 179.695 29.7565 179.795 29.8837V29.8837Z" fill="#FEFEFE"/>
<path d="M130.73 29.872C130.55 31.1097 130.68 32.261 131.592 33.2279C132.813 34.5204 134.558 34.8493 136.065 34.0585C136.799 33.6791 137.384 33.0675 137.728 32.3206C138.072 31.5738 138.155 30.7343 137.964 29.9352C137.753 29.142 137.285 28.4399 136.632 27.9378C135.979 27.4356 135.177 27.1613 134.351 27.1575C130.747 27.1309 127.142 27.1325 123.538 27.1259C121.924 27.1259 120.31 27.1259 118.697 27.1259C118.508 27.1259 118.319 27.1259 118.132 27.1259C117.763 27.1491 117.369 27.2455 117.36 27.6642C117.35 28.1326 117.772 28.2307 118.162 28.2672C118.831 28.3303 119.508 28.3254 120.169 28.445C122.282 28.8238 124.086 29.6611 124.776 31.9005C125.765 35.1035 123.94 37.9759 120.499 38.6836C119.44 38.9013 118.366 38.9245 117.292 38.9278C115.117 38.9278 112.934 38.9129 110.754 38.9395C110.224 38.9395 110.066 38.7883 110.085 38.2617C110.125 37.0888 110.135 35.9109 110.085 34.738C110.055 34.0901 110.218 33.8741 110.909 33.8891C113.141 33.9339 115.375 33.9057 117.601 33.9057C117.789 33.9057 117.978 33.9057 118.165 33.9057C118.553 33.9057 118.893 33.7612 118.899 33.3375C118.906 32.9139 118.59 32.7644 118.185 32.7577C117.353 32.7474 116.524 32.6483 115.712 32.462C112.691 31.741 111.328 29.9368 111.495 26.8651C111.625 24.4844 113.576 22.6503 116.338 22.3513C117.192 22.2616 118.051 22.2166 118.909 22.2167C124.074 22.2045 129.239 22.2045 134.404 22.2167C138.607 22.2167 142.252 25.1722 142.936 29.2873C143.508 32.7262 142.401 35.6335 139.545 37.7267C136.725 39.7884 133.598 40.0376 130.49 38.5175C127.381 36.9974 125.705 34.4124 125.646 30.9004C125.646 30.5582 125.588 30.206 125.722 29.8704C125.908 29.7128 126.146 29.6283 126.391 29.6328C127.618 29.6029 128.844 29.6029 130.071 29.6328C130.192 29.6246 130.313 29.6417 130.426 29.6829C130.54 29.7241 130.644 29.7886 130.73 29.872V29.872Z" fill="#FEFEFE"/>
<path d="M217.97 34.4955C218.883 34.4788 219.81 34.547 220.708 34.4307C222.803 34.1615 224.131 32.5085 223.98 30.4817C223.842 28.6044 222.231 27.1591 220.206 27.1591C217.407 27.1442 214.609 27.1591 211.81 27.1591C208.688 27.1591 205.568 27.1591 202.441 27.1591C201.981 27.1591 201.73 27.1824 201.725 27.7755C201.725 28.4117 202.045 28.3719 202.471 28.3702C204.086 28.3602 205.7 28.3852 207.323 28.3553C207.813 28.3553 207.975 28.4749 207.962 28.9782C207.925 30.2325 207.935 31.4885 207.962 32.7428C207.962 33.1498 207.87 33.2943 207.43 33.2927C204.041 33.2749 200.65 33.2749 197.258 33.2927C196.885 33.2927 196.757 33.2013 196.757 32.8059C196.771 29.4423 196.771 26.0776 196.757 22.7118C196.757 22.1386 197.091 22.2283 197.439 22.2283H209.063C212.884 22.2283 216.706 22.1752 220.526 22.2433C224.039 22.3064 226.669 24.0242 228.173 27.1176C229.677 30.2109 229.377 33.3043 227.228 36.0704C225.682 38.0639 223.641 39.2551 221.048 39.3747C218.455 39.4943 215.885 39.3897 213.304 39.4279C212.934 39.4279 212.857 39.2618 212.859 38.9295C212.865 36.0499 212.865 33.1653 212.859 30.2757C212.859 29.7989 213.15 29.671 213.528 29.6561C214.766 29.6007 216.003 29.6007 217.24 29.6561C217.693 29.676 217.889 29.9069 217.877 30.3837C217.851 31.5051 217.861 32.6265 217.877 33.7479C217.857 33.9888 217.74 34.2712 217.97 34.4955Z" fill="#FEFEFE"/>
<path d="M148.904 30.6877C148.904 33.4904 148.887 36.0505 148.917 38.6105C148.917 39.2069 148.812 39.4595 148.134 39.4262C146.899 39.3664 145.661 39.4013 144.423 39.4146C144.067 39.4146 143.886 39.3448 143.886 38.9345C143.901 32.2892 143.91 25.644 143.913 18.9988C143.913 18.9838 143.953 18.9689 144.161 18.8227L156.054 31.0266C156.35 30.4701 156.27 30.1761 156.27 29.8986C156.27 27.5728 156.298 25.2469 156.26 22.9327C156.25 22.3197 156.427 22.1669 157.027 22.1885C158.289 22.235 159.554 22.2134 160.818 22.1885C161.191 22.1885 161.344 22.2865 161.342 22.6869C161.342 29.352 161.342 36.0156 161.342 42.9133L148.904 30.6877Z" fill="#FEFEFE"/>
<path d="M217.969 34.4955C217.605 34.3576 217.759 34.0436 217.754 33.8077C217.737 32.7129 217.729 31.6181 217.754 30.5249C217.765 30.0531 217.64 29.8604 217.126 29.872C215.943 29.9036 214.759 29.9053 213.578 29.872C213.024 29.8554 212.909 30.0747 212.909 30.5764C212.929 33.2727 212.934 35.9674 212.909 38.662C212.909 39.2202 213.123 39.3166 213.618 39.3166C216.091 39.3166 218.562 39.3398 221.034 39.3564C220.902 39.4844 220.735 39.4561 220.578 39.4561C218.184 39.4561 215.79 39.4462 213.396 39.4661C212.909 39.4661 212.748 39.3282 212.752 38.8331C212.772 35.5216 212.772 32.2117 212.752 28.9035C212.752 28.4051 212.905 28.2639 213.396 28.2755C214.685 28.3054 215.977 28.3104 217.267 28.2755C217.832 28.2589 217.936 28.4865 217.936 28.9816C217.919 30.8173 217.817 32.6564 217.969 34.4955Z" fill="#BFBFBF"/>
<path d="M179.795 29.8837C178.408 29.8837 177.022 29.8837 175.637 29.8837C175.356 29.8837 175.043 29.7773 174.809 30.0398C174.533 29.48 174.257 28.9201 173.941 28.2822C175.733 28.2822 177.466 28.2822 179.199 28.2822C179.621 28.2822 179.617 28.5729 179.691 28.8653C179.803 29.1924 179.839 29.5408 179.795 29.8837Z" fill="#BFBFBF"/>
<path d="M130.73 29.872H125.725C125.708 29.7956 125.699 29.7177 125.697 29.6394C125.789 28.2722 125.79 28.2722 127.184 28.2722H131.595L130.73 29.872Z" fill="#C0C0C0"/>
</svg>
